<svg xmlns="http://www.w3.org/2000/svg" viewBox="0 0 150 51.46653339">
    <g>
        <rect fill="#2e3192" width="45.58518964" height="12.2369679"/>
        <rect fill="#2e3192" y="38.58134891" width="45.58518964" height="12.88518064"/>
        <rect fill="#00aeef" y="19.21892199" width="40.1988155" height="11.3012572"/>
        <polygon fill="#00aeef"
                 points="58.82961642 37.83037621 58.82962072 51.46652955 45.58518964 51.46652955 45.58518964 0 81.62221554 51.46653051 68.37778446 51.46653051 58.82961642 37.83037621"/>
        <polygon fill="#00aeef"
                 points="104.41480607 37.83037813 104.41481036 51.46653147 91.17037928 51.46653147 91.17037928 .00000192 127.20740518 51.46653243 113.9629741 51.46653243 104.41480607 37.83037813"/>
        <polygon fill="#2e3192"
                 points="136.75556892 51.46653339 127.20740655 37.83025639 127.20740518 51.46653243 113.95622561 32.54401382 113.9629741 .00000288 150 51.46653339 136.75556892 51.46653339"/>
        <polygon fill="#2e3192"
                 points="91.17037928 51.46653147 81.62221691 37.83025447 81.62221554 51.46653051 68.37103597 32.5440119 68.37778446 .00000096 104.41481036 51.46653147 91.17037928 51.46653147"/>
    </g>
</svg>